<?xml version="1.0" encoding="iso-8859-1"?>
<!-- Uploaded to: SVG Repo, www.svgrepo.com, Generator: SVG Repo Mixer Tools -->
<svg height="800px" width="800px" version="1.1" id="Layer_1" xmlns="http://www.w3.org/2000/svg" xmlns:xlink="http://www.w3.org/1999/xlink" 
	 viewBox="0 0 392.525 392.525" xml:space="preserve">
<path style="fill:#FFFFFF;" d="M21.882,157.091c0,74.537,60.638,135.305,135.305,135.305s135.305-60.638,135.305-135.305
	S231.854,21.786,157.187,21.786S21.882,82.554,21.882,157.091z"/>
<path style="fill:#FFC10D;" d="M361.212,320.065l-77.576-69.689h-0.065c-9.374,12.606-20.493,23.725-33.099,33.099v0.065
	l69.689,77.576c12.671,11.442,26.44,13.77,42.214,1.164C374.335,347.087,373.365,333.123,361.212,320.065z"/>
<path style="fill:#194F82;" d="M375.822,303.838l-80.356-72.21c12.024-22.174,18.877-47.58,18.877-74.537
	C314.343,70.465,243.878,0,157.252,0S0.161,70.465,0.161,157.091s70.465,157.091,157.091,157.091
	c26.958,0,52.364-6.788,74.537-18.877l72.145,80.356c23.79,24.436,56.501,19.846,73.826,1.939
	C397.543,358.982,397.543,322.327,375.822,303.838z M320.161,361.115l-69.689-77.576v-0.065
	c12.606-9.374,23.725-20.493,33.099-33.099h0.065l77.576,69.689c12.154,13.059,13.123,27.022,1.164,42.214
	C346.601,374.82,332.832,372.558,320.161,361.115z M292.492,157.091c0,74.537-60.638,135.305-135.305,135.305
	S21.882,231.758,21.882,157.091S82.65,21.786,157.187,21.786S292.492,82.554,292.492,157.091z"/>
<path style="fill:#FFC10D;" d="M157.187,270.61c-62.578,0-113.519-50.941-113.519-113.519S94.61,43.572,157.187,43.572
	s113.519,50.941,113.519,113.519S219.83,270.61,157.187,270.61z"/>
<path style="fill:#56ACE0;" d="M106.504,120.178c0,19.717,28.121,74.925,50.683,114.036c22.562-39.111,50.683-94.319,50.683-114.036
	c0-27.992-22.691-50.683-50.683-50.683S106.504,92.186,106.504,120.178z M157.187,82.812c20.558,0,37.236,16.679,37.236,37.236
	c0,20.558-16.679,37.236-37.236,37.236s-37.236-16.679-37.236-37.236S136.759,82.812,157.187,82.812z"/>
<path style="fill:#FFFFFF;" d="M157.187,135.434c8.469,0,15.386-6.853,15.386-15.386s-6.853-15.386-15.386-15.386
	c-8.533,0-15.386,6.853-15.386,15.386C141.866,128.582,148.719,135.434,157.187,135.434z"/>
<g>
	<path style="fill:#194F82;" d="M157.187,47.644c-39.952,0-72.469,32.517-72.469,72.469c0,36.008,56.695,130.521,63.16,141.188
		c2.004,3.232,5.495,5.236,9.374,5.236c3.814,0,7.37-2.004,9.374-5.236c6.465-10.667,63.16-105.115,63.16-141.188
		C229.721,80.226,197.139,47.644,157.187,47.644z M207.87,120.178c0,19.717-28.121,74.925-50.683,114.036
		c-22.562-39.111-50.683-94.319-50.683-114.036c0-27.992,22.691-50.683,50.683-50.683S207.87,92.186,207.87,120.178z"/>
	<path style="fill:#194F82;" d="M157.187,157.349c20.558,0,37.236-16.679,37.236-37.236s-16.679-37.236-37.236-37.236
		s-37.236,16.614-37.236,37.172C119.951,140.606,136.759,157.349,157.187,157.349z M157.187,104.598
		c8.469,0,15.386,6.853,15.386,15.386s-6.853,15.386-15.386,15.386c-8.533,0-15.386-6.853-15.386-15.386
		C141.866,111.58,148.719,104.598,157.187,104.598z"/>
</g>
</svg>