<svg xmlns="http://www.w3.org/2000/svg" xmlns:xlink="http://www.w3.org/1999/xlink" viewBox="0,0,256,256" width="128px" height="128px"><defs><linearGradient x1="32" y1="6" x2="32" y2="58" gradientUnits="userSpaceOnUse" id="color-1"><stop offset="0" stop-color="#04bf9d"></stop><stop offset="1" stop-color="#04bf9d"></stop></linearGradient><linearGradient x1="21.922" y1="25.872" x2="22.081" y2="44.462" gradientUnits="userSpaceOnUse" id="color-2"><stop offset="0" stop-color="#04bf9d"></stop><stop offset="1" stop-color="#04bf9d"></stop></linearGradient><linearGradient x1="22.474" y1="17.966" x2="22.527" y2="24.145" gradientUnits="userSpaceOnUse" id="color-3"><stop offset="0" stop-color="#04bf9d"></stop><stop offset="1" stop-color="#04bf9d"></stop></linearGradient><linearGradient x1="38.077" y1="25.983" x2="37.922" y2="44.076" gradientUnits="userSpaceOnUse" id="color-4"><stop offset="0" stop-color="#04bf9d"></stop><stop offset="1" stop-color="#04bf9d"></stop></linearGradient></defs><g fill="none" fill-rule="nonzero" stroke="none" stroke-width="1" stroke-linecap="butt" stroke-linejoin="miter" stroke-miterlimit="10" stroke-dasharray="" stroke-dashoffset="0" font-family="none" font-weight="none" font-size="none" text-anchor="none" style="mix-blend-mode: normal"><g transform="scale(4,4)"><path d="M32,58c-14.336,0 -26,-11.663 -26,-26c0,-14.336 11.664,-26 26,-26c14.336,0 26,11.664 26,26c0,14.337 -11.664,26 -26,26zM32,8c-13.233,0 -24,10.767 -24,24c0,13.233 10.767,24 24,24c13.233,0 24,-10.767 24,-24c0,-13.233 -10.767,-24 -24,-24z" fill="url(#color-1)"></path><rect x="19" y="26" width="6" height="18" fill="url(#color-2)"></rect><ellipse cx="22.5" cy="21" rx="3.5" ry="3" fill="url(#color-3)"></ellipse><g fill="url(#color-4)"><path d="M40,26h-0.529h-0.001c-2.187,0 -4,1.572 -4.387,3.647h-0.083v-3.647h-6v18h6v-8.588v-1.529c0.007,-0.379 0.037,-0.729 0.084,-1.06c0.308,-1.33 1.493,-2.323 2.916,-2.323c1.657,0 3,1.343 3,3v0.559v1.176v8.765h6v-9.118v-0.823v-1.059c0,-3.866 -3.134,-7 -7,-7z"></path></g></g></g></svg>